<?xml version="1.0" encoding="UTF-8"?>
<!DOCTYPE svg PUBLIC "-//W3C//DTD SVG 1.1//EN" "http://www.w3.org/Graphics/SVG/1.1/DTD/svg11.dtd">
<svg xmlns="http://www.w3.org/2000/svg" xmlns:xlink="http://www.w3.org/1999/xlink" version="1.1" width="341" height="357" viewBox="-0.5 -0.5 341 357" style="background-color: rgb(255, 255, 255);"><defs><filter id="dropShadow"><feGaussianBlur in="SourceAlpha" stdDeviation="1.7" result="blur"/><feOffset in="blur" dx="3" dy="3" result="offsetBlur"/><feFlood flood-color="#3D4574" flood-opacity="0.4" result="offsetColor"/><feComposite in="offsetColor" in2="offsetBlur" operator="in" result="offsetBlur"/><feBlend in="SourceGraphic" in2="offsetBlur"/></filter></defs><g filter="url(#dropShadow)"><rect x="0" y="29" width="320" height="320" fill="#ffffff" stroke="#000000" pointer-events="all"/><path d="M 0 189 L 320 189" fill="none" stroke="#000000" stroke-miterlimit="10" stroke-dasharray="1 1" pointer-events="stroke"/><path d="M 0 109 L 320 109" fill="none" stroke="#000000" stroke-miterlimit="10" stroke-dasharray="1 1" pointer-events="stroke"/><path d="M 80 349 L 80 29" fill="none" stroke="#000000" stroke-miterlimit="10" stroke-dasharray="1 1" pointer-events="stroke"/><path d="M 160 349 L 160 29" fill="none" stroke="#000000" stroke-miterlimit="10" stroke-dasharray="1 1" pointer-events="stroke"/><path d="M 240 349 L 240 29" fill="none" stroke="#000000" stroke-miterlimit="10" stroke-dasharray="1 1" pointer-events="stroke"/><rect x="160" y="109" width="80" height="80" fill="#fff2cc" stroke="#d6b656" stroke-dasharray="1 1" pointer-events="all"/><rect x="160" y="69" width="40" height="40" fill="#f5f5f5" stroke="#666666" pointer-events="all"/><rect x="200" y="69" width="40" height="40" fill="#f5f5f5" stroke="#666666" pointer-events="all"/><rect x="240" y="69" width="40" height="40" fill="#f5f5f5" stroke="#666666" pointer-events="all"/><rect x="240" y="109" width="40" height="40" fill="#f5f5f5" stroke="#666666" pointer-events="all"/><rect x="120" y="189" width="40" height="40" fill="#f5f5f5" stroke="#666666" pointer-events="all"/><rect x="120" y="149" width="40" height="40" fill="#f5f5f5" stroke="#666666" pointer-events="all"/><rect x="120" y="109" width="40" height="40" fill="#f5f5f5" stroke="#666666" pointer-events="all"/><ellipse cx="190" cy="139" rx="120" ry="80" fill="none" stroke="#000000" transform="rotate(-40,190,139)" pointer-events="all"/><rect x="200" y="49" width="20" height="20" fill="#d5e8d4" stroke="#82b366" pointer-events="all"/><rect x="220" y="49" width="20" height="20" fill="#d5e8d4" stroke="#82b366" pointer-events="all"/><rect x="240" y="49" width="20" height="20" fill="#d5e8d4" stroke="#82b366" pointer-events="all"/><rect x="240" y="149" width="20" height="20" fill="#d5e8d4" stroke="#82b366" pointer-events="all"/><rect x="200" y="189" width="20" height="20" fill="#d5e8d4" stroke="#82b366" pointer-events="all"/><rect x="180" y="189" width="20" height="20" fill="#d5e8d4" stroke="#82b366" pointer-events="all"/><rect x="160" y="189" width="20" height="20" fill="#d5e8d4" stroke="#82b366" pointer-events="all"/><rect x="160" y="209" width="20" height="20" fill="#d5e8d4" stroke="#82b366" pointer-events="all"/><rect x="100" y="189" width="20" height="20" fill="#d5e8d4" stroke="#82b366" pointer-events="all"/><rect x="100" y="169" width="20" height="20" fill="#d5e8d4" stroke="#82b366" pointer-events="all"/><rect x="100" y="149" width="20" height="20" fill="#d5e8d4" stroke="#82b366" pointer-events="all"/><rect x="100" y="129" width="20" height="20" fill="#d5e8d4" stroke="#82b366" pointer-events="all"/><rect x="140" y="89" width="20" height="20" fill="#d5e8d4" stroke="#82b366" pointer-events="all"/><rect x="90" y="149" width="10" height="10" fill="#1ba1e2" stroke="#006eaf" pointer-events="all"/><rect x="90" y="159" width="10" height="10" fill="#1ba1e2" stroke="#006eaf" pointer-events="all"/><rect x="90" y="169" width="10" height="10" fill="#1ba1e2" stroke="#006eaf" pointer-events="all"/><rect x="90" y="179" width="10" height="10" fill="#1ba1e2" stroke="#006eaf" pointer-events="all"/><rect x="90" y="189" width="10" height="10" fill="#1ba1e2" stroke="#006eaf" pointer-events="all"/><rect x="110" y="209" width="10" height="10" fill="#1ba1e2" stroke="#006eaf" pointer-events="all"/><rect x="180" y="219" width="10" height="10" fill="#1ba1e2" stroke="#006eaf" pointer-events="all"/><rect x="180" y="209" width="10" height="10" fill="#1ba1e2" stroke="#006eaf" pointer-events="all"/><rect x="190" y="209" width="10" height="10" fill="#1ba1e2" stroke="#006eaf" pointer-events="all"/><rect x="200" y="209" width="10" height="10" fill="#1ba1e2" stroke="#006eaf" pointer-events="all"/><rect x="220" y="189" width="10" height="10" fill="#1ba1e2" stroke="#006eaf" pointer-events="all"/><rect x="230" y="189" width="10" height="10" fill="#1ba1e2" stroke="#006eaf" pointer-events="all"/><rect x="220" y="199" width="10" height="10" fill="#1ba1e2" stroke="#006eaf" pointer-events="all"/><rect x="240" y="179" width="10" height="10" fill="#1ba1e2" stroke="#006eaf" pointer-events="all"/><rect x="240" y="169" width="10" height="10" fill="#1ba1e2" stroke="#006eaf" pointer-events="all"/><rect x="250" y="169" width="10" height="10" fill="#1ba1e2" stroke="#006eaf" pointer-events="all"/><rect x="260" y="149" width="10" height="10" fill="#1ba1e2" stroke="#006eaf" pointer-events="all"/><rect x="260" y="159" width="10" height="10" fill="#1ba1e2" stroke="#006eaf" pointer-events="all"/><rect x="280" y="119" width="10" height="10" fill="#1ba1e2" stroke="#006eaf" pointer-events="all"/><rect x="280" y="109" width="10" height="10" fill="#1ba1e2" stroke="#006eaf" pointer-events="all"/><rect x="280" y="99" width="10" height="10" fill="#1ba1e2" stroke="#006eaf" pointer-events="all"/><rect x="280" y="89" width="10" height="10" fill="#1ba1e2" stroke="#006eaf" pointer-events="all"/><rect x="280" y="79" width="10" height="10" fill="#1ba1e2" stroke="#006eaf" pointer-events="all"/><rect x="260" y="59" width="10" height="10" fill="#1ba1e2" stroke="#006eaf" pointer-events="all"/><rect x="190" y="49" width="10" height="10" fill="#1ba1e2" stroke="#006eaf" pointer-events="all"/><rect x="190" y="59" width="10" height="10" fill="#1ba1e2" stroke="#006eaf" pointer-events="all"/><rect x="180" y="59" width="10" height="10" fill="#1ba1e2" stroke="#006eaf" pointer-events="all"/><rect x="170" y="59" width="10" height="10" fill="#1ba1e2" stroke="#006eaf" pointer-events="all"/><rect x="150" y="79" width="10" height="10" fill="#1ba1e2" stroke="#006eaf" pointer-events="all"/><rect x="140" y="79" width="10" height="10" fill="#1ba1e2" stroke="#006eaf" pointer-events="all"/><rect x="130" y="89" width="10" height="10" fill="#1ba1e2" stroke="#006eaf" pointer-events="all"/><rect x="130" y="99" width="10" height="10" fill="#1ba1e2" stroke="#006eaf" pointer-events="all"/><rect x="120" y="99" width="10" height="10" fill="#1ba1e2" stroke="#006eaf" pointer-events="all"/><rect x="110" y="109" width="10" height="10" fill="#1ba1e2" stroke="#006eaf" pointer-events="all"/><rect x="110" y="119" width="10" height="10" fill="#1ba1e2" stroke="#006eaf" pointer-events="all"/><path d="M 0 269 L 320 269" fill="none" stroke="#000000" stroke-miterlimit="10" stroke-dasharray="1 1" pointer-events="stroke"/></g></svg>