<?xml version="1.0" encoding="UTF-8"?>
<!DOCTYPE svg PUBLIC "-//W3C//DTD SVG 1.1//EN" "http://www.w3.org/Graphics/SVG/1.1/DTD/svg11.dtd">
<svg xmlns="http://www.w3.org/2000/svg" xmlns:xlink="http://www.w3.org/1999/xlink" version="1.1" width="330" height="331" viewBox="-0.5 -0.5 330 331" style="background-color: rgb(255, 255, 255);"><defs><filter id="dropShadow"><feGaussianBlur in="SourceAlpha" stdDeviation="1.7" result="blur"/><feOffset in="blur" dx="3" dy="3" result="offsetBlur"/><feFlood flood-color="#3D4574" flood-opacity="0.4" result="offsetColor"/><feComposite in="offsetColor" in2="offsetBlur" operator="in" result="offsetBlur"/><feBlend in="SourceGraphic" in2="offsetBlur"/></filter></defs><g filter="url(#dropShadow)"><rect x="2" y="2" width="320" height="320" fill="#ffffff" stroke="#000000" pointer-events="all"/><ellipse cx="32" cy="72" rx="10" ry="10" fill="#ff0000" stroke="#000000" pointer-events="all"/><ellipse cx="92" cy="42" rx="10" ry="10" fill="#ff0000" stroke="#000000" pointer-events="all"/><ellipse cx="42" cy="112" rx="10" ry="10" fill="#ff0000" stroke="#000000" pointer-events="all"/><ellipse cx="92" cy="92" rx="10" ry="10" fill="#ff0000" stroke="#000000" pointer-events="all"/><ellipse cx="92" cy="132" rx="10" ry="10" fill="#ff0000" stroke="#000000" pointer-events="all"/><ellipse cx="152" cy="62" rx="10" ry="10" fill="#ff0000" stroke="#000000" pointer-events="all"/><ellipse cx="172" cy="122" rx="10" ry="10" fill="#ff0000" stroke="#000000" pointer-events="all"/><ellipse cx="222" cy="52" rx="10" ry="10" fill="#ff0000" stroke="#000000" pointer-events="all"/><ellipse cx="252" cy="92" rx="10" ry="10" fill="#ff0000" stroke="#000000" pointer-events="all"/><ellipse cx="32" cy="182" rx="10" ry="10" fill="#ff0000" stroke="#000000" pointer-events="all"/><ellipse cx="292" cy="32" rx="10" ry="10" fill="#ff0000" stroke="#000000" pointer-events="all"/><ellipse cx="32" cy="302" rx="10" ry="10" fill="#00ff00" stroke="#000000" pointer-events="all"/><ellipse cx="72" cy="232" rx="10" ry="10" fill="#00ff00" stroke="#000000" pointer-events="all"/><ellipse cx="132" cy="192" rx="10" ry="10" fill="#00ff00" stroke="#000000" pointer-events="all"/><ellipse cx="242" cy="182" rx="10" ry="10" fill="#00ff00" stroke="#000000" pointer-events="all"/><ellipse cx="302" cy="142" rx="10" ry="10" fill="#00ff00" stroke="#000000" pointer-events="all"/><ellipse cx="162" cy="252" rx="10" ry="10" fill="#00ff00" stroke="#000000" pointer-events="all"/><ellipse cx="192" cy="202" rx="10" ry="10" fill="#00ff00" stroke="#000000" pointer-events="all"/><ellipse cx="102" cy="262" rx="10" ry="10" fill="#00ff00" stroke="#000000" pointer-events="all"/><ellipse cx="252" cy="232" rx="10" ry="10" fill="#00ff00" stroke="#000000" pointer-events="all"/><ellipse cx="222" cy="292" rx="10" ry="10" fill="#00ff00" stroke="#000000" pointer-events="all"/><ellipse cx="292" cy="272" rx="10" ry="10" fill="#00ff00" stroke="#000000" pointer-events="all"/><path d="M 2 322 Q 2 162 162 162 Q 322 162 322 2" fill="none" stroke="#7ea6e0" stroke-width="4" stroke-miterlimit="10" pointer-events="stroke"/><path d="M 322 2 L 312.4 82 L 232.4 152.4 L 190.8 162 L 142.8 162 L 82 171.6 L 11.6 242 L 2 322" fill="none" stroke="#000000" stroke-miterlimit="10" pointer-events="all"/></g></svg>