<?xml version="1.0" encoding="UTF-8"?>
<!DOCTYPE svg PUBLIC "-//W3C//DTD SVG 1.1//EN" "http://www.w3.org/Graphics/SVG/1.1/DTD/svg11.dtd">
<svg xmlns="http://www.w3.org/2000/svg" xmlns:xlink="http://www.w3.org/1999/xlink" version="1.1" width="331" height="330" viewBox="-0.5 -0.5 331 330" style="background-color: rgb(255, 255, 255);"><defs><filter id="dropShadow"><feGaussianBlur in="SourceAlpha" stdDeviation="1.7" result="blur"/><feOffset in="blur" dx="3" dy="3" result="offsetBlur"/><feFlood flood-color="#3D4574" flood-opacity="0.4" result="offsetColor"/><feComposite in="offsetColor" in2="offsetBlur" operator="in" result="offsetBlur"/><feBlend in="SourceGraphic" in2="offsetBlur"/></filter></defs><g filter="url(#dropShadow)"><rect x="102" y="182" width="20" height="20" fill="#d5e8d4" stroke="#82b366" pointer-events="all"/><rect x="2" y="2" width="320" height="320" fill="none" stroke="#000000" pointer-events="all"/><rect x="202" y="152" width="10" height="10" fill="#f8cecc" stroke="#b85450" pointer-events="all"/><rect x="202" y="142" width="10" height="10" fill="#f8cecc" stroke="#b85450" pointer-events="all"/><rect x="212" y="142" width="10" height="10" fill="#f8cecc" stroke="#b85450" pointer-events="all"/><rect x="222" y="142" width="10" height="10" fill="#f8cecc" stroke="#b85450" pointer-events="all"/><rect x="232" y="142" width="10" height="10" fill="#f8cecc" stroke="#b85450" pointer-events="all"/><rect x="242" y="142" width="10" height="10" fill="#f8cecc" stroke="#b85450" pointer-events="all"/><rect x="262" y="122" width="10" height="10" fill="#f8cecc" stroke="#b85450" pointer-events="all"/><rect x="282" y="112" width="10" height="10" fill="#f8cecc" stroke="#b85450" pointer-events="all"/><rect x="282" y="102" width="10" height="10" fill="#f8cecc" stroke="#b85450" pointer-events="all"/><rect x="302" y="72" width="10" height="10" fill="#f8cecc" stroke="#b85450" pointer-events="all"/><rect x="302" y="62" width="10" height="10" fill="#f8cecc" stroke="#b85450" pointer-events="all"/><rect x="302" y="42" width="10" height="10" fill="#f8cecc" stroke="#b85450" pointer-events="all"/><rect x="302" y="52" width="10" height="10" fill="#f8cecc" stroke="#b85450" pointer-events="all"/><rect x="312" y="42" width="10" height="10" fill="#f8cecc" stroke="#b85450" pointer-events="all"/><rect x="102" y="162" width="10" height="10" fill="#f8cecc" stroke="#b85450" pointer-events="all"/><rect x="92" y="162" width="10" height="10" fill="#f8cecc" stroke="#b85450" pointer-events="all"/><rect x="82" y="162" width="10" height="10" fill="#f8cecc" stroke="#b85450" pointer-events="all"/><rect x="52" y="182" width="10" height="10" fill="#f8cecc" stroke="#b85450" pointer-events="all"/><rect x="42" y="182" width="10" height="10" fill="#f8cecc" stroke="#b85450" pointer-events="all"/><rect x="32" y="202" width="10" height="10" fill="#f8cecc" stroke="#b85450" pointer-events="all"/><rect x="22" y="202" width="10" height="10" fill="#f8cecc" stroke="#b85450" pointer-events="all"/><rect x="22" y="212" width="10" height="10" fill="#f8cecc" stroke="#b85450" pointer-events="all"/><rect x="2" y="262" width="10" height="10" fill="#f8cecc" stroke="#b85450" pointer-events="all"/><rect x="2" y="252" width="10" height="10" fill="#f8cecc" stroke="#b85450" pointer-events="all"/><rect x="2" y="242" width="10" height="10" fill="#f8cecc" stroke="#b85450" pointer-events="all"/><rect x="282" y="82" width="20" height="20" fill="#f8cecc" stroke="#b85450" pointer-events="all"/><rect x="242" y="122" width="20" height="20" fill="#f8cecc" stroke="#b85450" pointer-events="all"/><rect x="282" y="62" width="20" height="20" fill="#f8cecc" stroke="#b85450" pointer-events="all"/><rect x="282" y="42" width="20" height="20" fill="#f8cecc" stroke="#b85450" pointer-events="all"/><rect x="2" y="202" width="20" height="20" fill="#f8cecc" stroke="#b85450" pointer-events="all"/><rect x="2" y="222" width="20" height="20" fill="#f8cecc" stroke="#b85450" pointer-events="all"/><rect x="62" y="162" width="20" height="20" fill="#f8cecc" stroke="#b85450" pointer-events="all"/><rect x="42" y="162" width="20" height="20" fill="#f8cecc" stroke="#b85450" pointer-events="all"/><rect x="242" y="82" width="40" height="40" fill="#f8cecc" stroke="#b85450" pointer-events="all"/><rect x="2" y="162" width="40" height="40" fill="#f8cecc" stroke="#b85450" pointer-events="all"/><rect x="162" y="122" width="40" height="40" fill="#f8cecc" stroke="#b85450" pointer-events="all"/><rect x="242" y="42" width="40" height="40" fill="#f8cecc" stroke="#b85450" pointer-events="all"/><rect x="282" y="2" width="40" height="40" fill="#f8cecc" stroke="#b85450" pointer-events="all"/><rect x="242" y="2" width="40" height="40" fill="#f8cecc" stroke="#b85450" pointer-events="all"/><rect x="202" y="82" width="40" height="40" fill="#f8cecc" stroke="#b85450" pointer-events="all"/><rect x="162" y="82" width="40" height="40" fill="#f8cecc" stroke="#b85450" pointer-events="all"/><rect x="162" y="2" width="80" height="80" fill="#f8cecc" stroke="#b85450" pointer-events="all"/><rect x="2" y="282" width="40" height="40" fill="#d5e8d4" stroke="#82b366" pointer-events="all"/><rect x="42" y="242" width="40" height="40" fill="#d5e8d4" stroke="#82b366" pointer-events="all"/><rect x="42" y="282" width="40" height="40" fill="#d5e8d4" stroke="#82b366" pointer-events="all"/><rect x="42" y="202" width="40" height="40" fill="#d5e8d4" stroke="#82b366" pointer-events="all"/><rect x="82" y="202" width="40" height="40" fill="#d5e8d4" stroke="#82b366" pointer-events="all"/><rect x="122" y="162" width="40" height="40" fill="#d5e8d4" stroke="#82b366" pointer-events="all"/><rect x="122" y="202" width="40" height="40" fill="#d5e8d4" stroke="#82b366" pointer-events="all"/><rect x="82" y="242" width="80" height="80" fill="#d5e8d4" stroke="#82b366" pointer-events="all"/><rect x="282" y="122" width="40" height="40" fill="#d5e8d4" stroke="#82b366" pointer-events="all"/><rect x="162" y="162" width="160" height="160" fill="#d5e8d4" stroke="#82b366" pointer-events="all"/><rect x="2" y="2" width="160" height="160" fill="#f8cecc" stroke="#b85450" pointer-events="all"/><ellipse cx="32" cy="72" rx="10" ry="10" fill="#ff0000" stroke="#000000" pointer-events="all"/><ellipse cx="92" cy="42" rx="10" ry="10" fill="#ff0000" stroke="#000000" pointer-events="all"/><ellipse cx="42" cy="112" rx="10" ry="10" fill="#ff0000" stroke="#000000" pointer-events="all"/><ellipse cx="92" cy="92" rx="10" ry="10" fill="#ff0000" stroke="#000000" pointer-events="all"/><ellipse cx="92" cy="132" rx="10" ry="10" fill="#ff0000" stroke="#000000" pointer-events="all"/><ellipse cx="152" cy="62" rx="10" ry="10" fill="#ff0000" stroke="#000000" pointer-events="all"/><ellipse cx="172" cy="122" rx="10" ry="10" fill="#ff0000" stroke="#000000" pointer-events="all"/><ellipse cx="222" cy="52" rx="10" ry="10" fill="#ff0000" stroke="#000000" pointer-events="all"/><ellipse cx="252" cy="92" rx="10" ry="10" fill="#ff0000" stroke="#000000" pointer-events="all"/><ellipse cx="32" cy="182" rx="10" ry="10" fill="#ff0000" stroke="#000000" pointer-events="all"/><ellipse cx="292" cy="32" rx="10" ry="10" fill="#ff0000" stroke="#000000" pointer-events="all"/><ellipse cx="32" cy="302" rx="10" ry="10" fill="#00ff00" stroke="#000000" pointer-events="all"/><ellipse cx="72" cy="232" rx="10" ry="10" fill="#00ff00" stroke="#000000" pointer-events="all"/><ellipse cx="132" cy="192" rx="10" ry="10" fill="#00ff00" stroke="#000000" pointer-events="all"/><ellipse cx="242" cy="182" rx="10" ry="10" fill="#00ff00" stroke="#000000" pointer-events="all"/><ellipse cx="302" cy="142" rx="10" ry="10" fill="#00ff00" stroke="#000000" pointer-events="all"/><ellipse cx="162" cy="252" rx="10" ry="10" fill="#00ff00" stroke="#000000" pointer-events="all"/><ellipse cx="192" cy="202" rx="10" ry="10" fill="#00ff00" stroke="#000000" pointer-events="all"/><ellipse cx="102" cy="262" rx="10" ry="10" fill="#00ff00" stroke="#000000" pointer-events="all"/><ellipse cx="252" cy="232" rx="10" ry="10" fill="#00ff00" stroke="#000000" pointer-events="all"/><ellipse cx="222" cy="292" rx="10" ry="10" fill="#00ff00" stroke="#000000" pointer-events="all"/><ellipse cx="292" cy="272" rx="10" ry="10" fill="#00ff00" stroke="#000000" pointer-events="all"/><rect x="22" y="262" width="20" height="20" fill="#d5e8d4" stroke="#82b366" pointer-events="all"/><rect x="22" y="242" width="20" height="20" fill="#d5e8d4" stroke="#82b366" pointer-events="all"/><rect x="22" y="222" width="20" height="20" fill="#d5e8d4" stroke="#82b366" pointer-events="all"/><rect x="82" y="182" width="20" height="20" fill="#d5e8d4" stroke="#82b366" pointer-events="all"/><rect x="62" y="182" width="20" height="20" fill="#d5e8d4" stroke="#82b366" pointer-events="all"/><rect x="262" y="142" width="20" height="20" fill="#d5e8d4" stroke="#82b366" pointer-events="all"/><rect x="302" y="102" width="20" height="20" fill="#d5e8d4" stroke="#82b366" pointer-events="all"/><rect x="12" y="272" width="10" height="10" fill="#d5e8d4" stroke="#82b366" pointer-events="all"/><rect x="2" y="272" width="10" height="10" fill="#d5e8d4" stroke="#82b366" pointer-events="all"/><rect x="2" y="272" width="10" height="10" fill="#d5e8d4" stroke="#82b366" pointer-events="all"/><rect x="12" y="262" width="10" height="10" fill="#d5e8d4" stroke="#82b366" pointer-events="all"/><rect x="12" y="252" width="10" height="10" fill="#d5e8d4" stroke="#82b366" pointer-events="all"/><rect x="12" y="242" width="10" height="10" fill="#d5e8d4" stroke="#82b366" pointer-events="all"/><rect x="32" y="212" width="10" height="10" fill="#d5e8d4" stroke="#82b366" pointer-events="all"/><rect x="52" y="192" width="10" height="10" fill="#d5e8d4" stroke="#82b366" pointer-events="all"/><rect x="42" y="192" width="10" height="10" fill="#d5e8d4" stroke="#82b366" pointer-events="all"/><rect x="82" y="172" width="10" height="10" fill="#d5e8d4" stroke="#82b366" pointer-events="all"/><rect x="92" y="172" width="10" height="10" fill="#d5e8d4" stroke="#82b366" pointer-events="all"/><rect x="102" y="172" width="10" height="10" fill="#d5e8d4" stroke="#82b366" pointer-events="all"/><rect x="112" y="172" width="10" height="10" fill="#d5e8d4" stroke="#82b366" pointer-events="all"/><rect x="112" y="162" width="10" height="10" fill="#d5e8d4" stroke="#82b366" pointer-events="all"/><rect x="212" y="152" width="10" height="10" fill="#d5e8d4" stroke="#82b366" pointer-events="all"/><rect x="222" y="152" width="10" height="10" fill="#d5e8d4" stroke="#82b366" pointer-events="all"/><rect x="232" y="152" width="10" height="10" fill="#d5e8d4" stroke="#82b366" pointer-events="all"/><rect x="242" y="152" width="10" height="10" fill="#d5e8d4" stroke="#82b366" pointer-events="all"/><rect x="252" y="152" width="10" height="10" fill="#d5e8d4" stroke="#82b366" pointer-events="all"/><rect x="252" y="142" width="10" height="10" fill="#d5e8d4" stroke="#82b366" pointer-events="all"/><rect x="262" y="132" width="10" height="10" fill="#d5e8d4" stroke="#82b366" pointer-events="all"/><rect x="272" y="132" width="10" height="10" fill="#d5e8d4" stroke="#82b366" pointer-events="all"/><rect x="272" y="122" width="10" height="10" fill="#d5e8d4" stroke="#82b366" pointer-events="all"/><rect x="292" y="112" width="10" height="10" fill="#d5e8d4" stroke="#82b366" pointer-events="all"/><rect x="292" y="102" width="10" height="10" fill="#d5e8d4" stroke="#82b366" pointer-events="all"/><rect x="312" y="52" width="10" height="10" fill="#d5e8d4" stroke="#82b366" pointer-events="all"/><rect x="312" y="62" width="10" height="10" fill="#d5e8d4" stroke="#82b366" pointer-events="all"/><rect x="312" y="72" width="10" height="10" fill="#d5e8d4" stroke="#82b366" pointer-events="all"/><rect x="302" y="82" width="20" height="20" fill="#d5e8d4" stroke="#82b366" pointer-events="all"/><path d="M 2 322 Q 2 162 162 162 Q 322 162 322 2" fill="none" stroke="#7ea6e0" stroke-opacity="0.7" stroke-width="4" stroke-miterlimit="10" pointer-events="stroke"/><rect x="202" y="122" width="20" height="20" fill="#f8cecc" stroke="#b85450" pointer-events="all"/><rect x="222" y="122" width="20" height="20" fill="#f8cecc" stroke="#b85450" pointer-events="all"/></g></svg>