<?xml version="1.0" encoding="UTF-8"?>
<!DOCTYPE svg PUBLIC "-//W3C//DTD SVG 1.1//EN" "http://www.w3.org/Graphics/SVG/1.1/DTD/svg11.dtd">
<svg xmlns="http://www.w3.org/2000/svg" xmlns:xlink="http://www.w3.org/1999/xlink" version="1.1" width="377" height="367" viewBox="-0.5 -0.5 377 367" style="background-color: rgb(255, 255, 255);"><defs><linearGradient x1="0%" y1="0%" x2="0%" y2="100%" id="mx-gradient-fff2cc-1-ffd966-1-s-0"><stop offset="0%" style="stop-color: rgb(255, 242, 204); stop-opacity: 1;"/><stop offset="100%" style="stop-color: rgb(255, 217, 102); stop-opacity: 1;"/></linearGradient><filter id="dropShadow"><feGaussianBlur in="SourceAlpha" stdDeviation="1.7" result="blur"/><feOffset in="blur" dx="3" dy="3" result="offsetBlur"/><feFlood flood-color="#3D4574" flood-opacity="0.4" result="offsetColor"/><feComposite in="offsetColor" in2="offsetBlur" operator="in" result="offsetBlur"/><feBlend in="SourceGraphic" in2="offsetBlur"/></filter></defs><g filter="url(#dropShadow)"><rect x="25" y="20" width="320" height="320" fill="#ffffff" stroke="#000000" pointer-events="all"/><rect x="25" y="20" width="40" height="40" fill="none" stroke="#000000" pointer-events="all"/><rect x="65" y="20" width="40" height="40" fill="url(#mx-gradient-fff2cc-1-ffd966-1-s-0)" stroke="#d6b656" pointer-events="all"/><rect x="25" y="60" width="40" height="40" fill="url(#mx-gradient-fff2cc-1-ffd966-1-s-0)" stroke="#d6b656" pointer-events="all"/><rect x="65" y="60" width="40" height="40" fill="url(#mx-gradient-fff2cc-1-ffd966-1-s-0)" stroke="#d6b656" pointer-events="all"/><rect x="25" y="100" width="80" height="80" fill="#b0e3e6" stroke="#0e8088" pointer-events="all"/><rect x="25" y="180" width="80" height="80" fill="#b0e3e6" stroke="#0e8088" pointer-events="all"/><rect x="105" y="260" width="80" height="80" fill="#b0e3e6" stroke="#0e8088" pointer-events="all"/><rect x="185" y="260" width="80" height="80" fill="#b0e3e6" stroke="#0e8088" pointer-events="all"/><rect x="265" y="180" width="80" height="80" fill="#b0e3e6" stroke="#0e8088" pointer-events="all"/><rect x="265" y="100" width="80" height="80" fill="#b0e3e6" stroke="#0e8088" pointer-events="all"/><rect x="185" y="20" width="80" height="80" fill="#b0e3e6" stroke="#0e8088" pointer-events="all"/><rect x="105" y="20" width="80" height="80" fill="#b0e3e6" stroke="#0e8088" pointer-events="all"/><rect x="265" y="20" width="40" height="40" fill="url(#mx-gradient-fff2cc-1-ffd966-1-s-0)" stroke="#d6b656" pointer-events="all"/><rect x="305" y="20" width="40" height="40" fill="none" stroke="#000000" pointer-events="all"/><rect x="265" y="60" width="40" height="40" fill="url(#mx-gradient-fff2cc-1-ffd966-1-s-0)" stroke="#d6b656" pointer-events="all"/><rect x="305" y="60" width="40" height="40" fill="url(#mx-gradient-fff2cc-1-ffd966-1-s-0)" stroke="#d6b656" pointer-events="all"/><rect x="25" y="260" width="40" height="40" fill="url(#mx-gradient-fff2cc-1-ffd966-1-s-0)" stroke="#d6b656" pointer-events="all"/><rect x="65" y="260" width="40" height="40" fill="url(#mx-gradient-fff2cc-1-ffd966-1-s-0)" stroke="#d6b656" pointer-events="all"/><rect x="25" y="300" width="40" height="40" fill="none" stroke="#000000" pointer-events="all"/><rect x="65" y="300" width="40" height="40" fill="url(#mx-gradient-fff2cc-1-ffd966-1-s-0)" stroke="#d6b656" pointer-events="all"/><rect x="265" y="260" width="40" height="40" fill="url(#mx-gradient-fff2cc-1-ffd966-1-s-0)" stroke="#d6b656" pointer-events="all"/><rect x="305" y="260" width="40" height="40" fill="url(#mx-gradient-fff2cc-1-ffd966-1-s-0)" stroke="#d6b656" pointer-events="all"/><rect x="265" y="300" width="40" height="40" fill="url(#mx-gradient-fff2cc-1-ffd966-1-s-0)" stroke="#d6b656" pointer-events="all"/><rect x="305" y="300" width="40" height="40" fill="none" stroke="#000000" pointer-events="all"/><rect x="105" y="100" width="80" height="80" fill="#b0e3e6" stroke="#0e8088" pointer-events="all"/><rect x="185" y="100" width="80" height="80" fill="#b0e3e6" stroke="#0e8088" pointer-events="all"/><rect x="105" y="180" width="80" height="80" fill="#b0e3e6" stroke="#0e8088" pointer-events="all"/><rect x="185" y="180" width="80" height="80" fill="#b0e3e6" stroke="#0e8088" pointer-events="all"/><rect x="25" y="20" width="20" height="20" fill="#0050ef" stroke="#001dbc" pointer-events="all"/><rect x="45" y="20" width="20" height="20" fill="#ffff88" stroke="#36393d" pointer-events="all"/><rect x="25" y="40" width="20" height="20" fill="#ffff88" stroke="#36393d" pointer-events="all"/><rect x="45" y="40" width="20" height="20" fill="#ffff88" stroke="#36393d" pointer-events="all"/><rect x="305" y="20" width="20" height="20" fill="#ffff88" stroke="#36393d" pointer-events="all"/><rect x="325" y="20" width="20" height="20" fill="#0050ef" stroke="#001dbc" pointer-events="all"/><rect x="305" y="40" width="20" height="20" fill="#ffff88" stroke="#36393d" pointer-events="all"/><rect x="325" y="40" width="20" height="20" fill="#ffff88" stroke="#36393d" pointer-events="all"/><rect x="25" y="300" width="20" height="20" fill="#ffff88" stroke="#36393d" pointer-events="all"/><rect x="45" y="300" width="20" height="20" fill="#ffff88" stroke="#36393d" pointer-events="all"/><rect x="25" y="320" width="20" height="20" fill="#0050ef" stroke="#001dbc" pointer-events="all"/><rect x="45" y="320" width="20" height="20" fill="#ffff88" stroke="#36393d" pointer-events="all"/><rect x="305" y="300" width="20" height="20" fill="#ffff88" stroke="#36393d" pointer-events="all"/><rect x="325" y="300" width="20" height="20" fill="#ffff88" stroke="#36393d" pointer-events="all"/><rect x="305" y="320" width="20" height="20" fill="#ffff88" stroke="#36393d" pointer-events="all"/><rect x="325" y="320" width="20" height="20" fill="#0050ef" stroke="#001dbc" pointer-events="all"/><ellipse cx="45" cy="40" rx="45" ry="40" fill="none" stroke="#0000ff" pointer-events="all"/><ellipse cx="325" cy="40" rx="45" ry="40" fill="none" stroke="#0000ff" pointer-events="all"/><ellipse cx="45" cy="320" rx="45" ry="40" fill="none" stroke="#0000ff" pointer-events="all"/><ellipse cx="325" cy="320" rx="45" ry="40" fill="none" stroke="#0000ff" pointer-events="all"/></g></svg>